<svg xmlns="http://www.w3.org/2000/svg" width="256" height="45" viewBox="0 0 256 45" fill="none"><path d="M165.07 38.5537C164.842 38.5554 164.62 38.6337 164.441 38.7759C164.262 38.9181 164.136 39.1162 164.083 39.3385C164.03 39.5607 164.052 39.7945 164.147 40.0023C164.242 40.2102 164.404 40.3802 164.607 40.4854V41.6995H165.456V40.5236C165.676 40.4337 165.857 40.2706 165.969 40.0621C166.082 39.8535 166.118 39.6124 166.072 39.3799C166.027 39.1475 165.902 38.938 165.719 38.7873C165.536 38.6367 165.307 38.5541 165.07 38.5537V38.5537Z" fill="white"></path><path d="M168.43 36.1816V34.3646C168.448 33.4441 168.101 32.5539 167.464 31.8888C166.828 31.2236 165.954 30.8377 165.033 30.8154C164.113 30.8377 163.239 31.2236 162.602 31.8888C161.966 32.5539 161.619 33.4441 161.637 34.3646V36.1816H160.363V43.3987C160.363 43.6239 160.453 43.8399 160.612 43.9991C160.771 44.1584 160.987 44.2478 161.212 44.2478H168.854C169.079 44.2478 169.295 44.1584 169.454 43.9991C169.614 43.8399 169.703 43.6239 169.703 43.3987V36.1816H168.43ZM162.486 34.3646C162.468 33.6693 162.725 32.995 163.203 32.4891C163.68 31.9832 164.338 31.6867 165.033 31.6645C165.728 31.6867 166.387 31.9832 166.864 32.4891C167.341 32.995 167.599 33.6693 167.58 34.3646V36.1816H162.486V34.3646ZM161.212 43.3987V37.0307H168.854V43.3987H161.212Z" fill="white"></path><path d="M67.4398 37.024C68.0503 37.024 68.5707 36.8063 68.9158 36.4028L68.4698 35.978C68.199 36.2753 67.8645 36.4187 67.4769 36.4187C66.7071 36.4187 66.1496 35.8771 66.1496 35.1126C66.1496 34.348 66.7071 33.8064 67.4769 33.8064C67.8645 33.8064 68.199 33.9498 68.4698 34.2418L68.9158 33.8224C68.5707 33.4189 68.0503 33.2012 67.4451 33.2012C66.3035 33.2012 65.454 34.0029 65.454 35.1126C65.454 36.2222 66.3035 37.024 67.4398 37.024Z" fill="white"></path><path d="M70.684 37.008C71.5654 37.008 72.1972 36.4028 72.1972 35.5532C72.1972 34.7037 71.5654 34.1038 70.684 34.1038C69.8132 34.1038 69.1761 34.7037 69.1761 35.5532C69.1761 36.4028 69.8132 37.008 70.684 37.008ZM70.684 36.4399C70.2061 36.4399 69.8451 36.0948 69.8451 35.5532C69.8451 35.0117 70.2061 34.6666 70.684 34.6666C71.1671 34.6666 71.5282 35.0117 71.5282 35.5532C71.5282 36.0948 71.1671 36.4399 70.684 36.4399Z" fill="white"></path><path d="M76.4104 34.1038C75.9591 34.1038 75.5768 34.2843 75.3485 34.5763C75.152 34.2577 74.8069 34.1038 74.3928 34.1038C74.0052 34.1038 73.676 34.2418 73.4636 34.4967V34.1356H72.8318V36.9709H73.4955V35.532C73.4955 34.9692 73.7928 34.6825 74.2335 34.6825C74.637 34.6825 74.8706 34.9267 74.8706 35.4311V36.9709H75.5343V35.532C75.5343 34.9692 75.837 34.6825 76.2723 34.6825C76.6758 34.6825 76.9095 34.9267 76.9095 35.4311V36.9709H77.5731V35.3462C77.5731 34.4914 77.0953 34.1038 76.4104 34.1038Z" fill="white"></path><path d="M79.9928 34.1038C79.6052 34.1038 79.2761 34.2365 79.0531 34.5073V34.1356H78.4212V38.0009H79.0849V36.6258C79.3132 36.8859 79.6318 37.008 79.9928 37.008C80.8211 37.008 81.4317 36.4346 81.4317 35.5532C81.4317 34.6772 80.8211 34.1038 79.9928 34.1038ZM79.9185 36.4399C79.4406 36.4399 79.0743 36.0948 79.0743 35.5532C79.0743 35.0117 79.4406 34.6666 79.9185 34.6666C80.3963 34.6666 80.7574 35.0117 80.7574 35.5532C80.7574 36.0948 80.3963 36.4399 79.9185 36.4399Z" fill="white"></path><path d="M82.6929 34.5498V34.1356H82.0611V36.9709H82.7248V35.5957C82.7248 35.017 83.0433 34.7197 83.5477 34.7197C83.5955 34.7197 83.6433 34.725 83.7017 34.7356V34.1038C83.2292 34.1038 82.8841 34.2524 82.6929 34.5498Z" fill="white"></path><path d="M85.3323 34.1038C84.8757 34.1038 84.435 34.2206 84.1324 34.4542L84.3925 34.9374C84.6049 34.7621 84.9341 34.656 85.2526 34.656C85.7252 34.656 85.9588 34.8843 85.9588 35.2718V35.3143H85.2261C84.366 35.3143 84.0474 35.686 84.0474 36.1585C84.0474 36.6523 84.4562 37.008 85.104 37.008C85.5287 37.008 85.8367 36.87 85.996 36.6258V36.9709H86.6225V35.309C86.6225 34.4914 86.1499 34.1038 85.3323 34.1038ZM85.242 36.5249C84.9022 36.5249 84.7005 36.3709 84.7005 36.132C84.7005 35.9249 84.8226 35.755 85.2739 35.755H85.9588V36.0842C85.8473 36.3762 85.5659 36.5249 85.242 36.5249Z" fill="white"></path><path d="M66.8717 42.0611C67.8911 42.0611 68.3742 41.5514 68.3742 40.9567C68.3742 39.5922 66.1708 40.1072 66.1708 39.3161C66.1708 39.0347 66.4044 38.8117 66.9778 38.8117C67.3017 38.8117 67.6681 38.9073 68.0026 39.1038L68.2202 38.5675C67.8964 38.3551 67.4291 38.2383 66.9832 38.2383C65.9637 38.2383 65.4859 38.748 65.4859 39.348C65.4859 40.7284 67.6946 40.2028 67.6946 41.0045C67.6946 41.2806 67.4504 41.4877 66.8717 41.4877C66.415 41.4877 65.9425 41.3178 65.6452 41.0789L65.4062 41.6151C65.7142 41.8806 66.2929 42.0611 66.8717 42.0611Z" fill="white"></path><path d="M71.6603 40.6063C71.6603 39.7197 71.055 39.1409 70.2267 39.1409C69.3825 39.1409 68.7613 39.7462 68.7613 40.5904C68.7613 41.4346 69.3772 42.0452 70.3276 42.0452C70.8161 42.0452 71.2143 41.8859 71.4691 41.5833L71.1134 41.1744C70.9116 41.3815 70.6621 41.4824 70.3435 41.4824C69.8497 41.4824 69.5046 41.2169 69.425 40.8028H71.6496C71.6549 40.7391 71.6603 40.6594 71.6603 40.6063ZM70.2267 39.6719C70.6621 39.6719 70.9753 39.9533 71.0284 40.3621H69.4197C69.4834 39.948 69.7966 39.6719 70.2267 39.6719Z" fill="white"></path><path d="M74.4799 39.1728V39.5497C74.2463 39.2683 73.8959 39.1409 73.4977 39.1409C72.6854 39.1409 72.0641 39.6825 72.0641 40.5054C72.0641 41.3284 72.6854 41.8806 73.4977 41.8806C73.88 41.8806 74.2145 41.7585 74.4481 41.5036V41.6523C74.4481 42.2257 74.172 42.5124 73.5455 42.5124C73.1526 42.5124 72.7491 42.3797 72.4995 42.1726L72.2022 42.6717C72.5261 42.9372 73.0517 43.0752 73.5826 43.0752C74.5755 43.0752 75.1118 42.608 75.1118 41.5779V39.1728H74.4799ZM73.5986 41.3178C73.0942 41.3178 72.7331 40.9886 72.7331 40.5054C72.7331 40.0276 73.0942 39.7037 73.5986 39.7037C74.0977 39.7037 74.4587 40.0276 74.4587 40.5054C74.4587 40.9886 74.0977 41.3178 73.5986 41.3178Z" fill="white"></path><path d="M78.0656 39.1728V40.6063C78.0656 41.1744 77.7523 41.4611 77.2904 41.4611C76.871 41.4611 76.6267 41.2169 76.6267 40.7019V39.1728H75.9631V40.7922C75.9631 41.647 76.4568 42.0452 77.1842 42.0452C77.5506 42.0452 77.8851 41.9071 78.0974 41.647V42.008H78.7293V39.1728H78.0656Z" fill="white"></path><path d="M80.23 39.5869V39.1728H79.5982V42.008H80.2619V40.6329C80.2619 40.0541 80.5805 39.7568 81.0849 39.7568C81.1327 39.7568 81.1804 39.7621 81.2388 39.7727V39.1409C80.7663 39.1409 80.4212 39.2896 80.23 39.5869Z" fill="white"></path><path d="M82.8694 39.1409C82.4128 39.1409 81.9721 39.2577 81.6695 39.4913L81.9296 39.9745C82.142 39.7993 82.4712 39.6931 82.7898 39.6931C83.2623 39.6931 83.4959 39.9214 83.4959 40.309V40.3515H82.7632C81.9031 40.3515 81.5845 40.7231 81.5845 41.1957C81.5845 41.6894 81.9934 42.0452 82.6411 42.0452C83.0659 42.0452 83.3738 41.9071 83.5331 41.6629V42.008H84.1596V40.3462C84.1596 39.5285 83.6871 39.1409 82.8694 39.1409ZM82.7792 41.562C82.4394 41.562 82.2376 41.408 82.2376 41.1691C82.2376 40.9621 82.3597 40.7922 82.811 40.7922H83.4959V41.1213C83.3844 41.4134 83.103 41.562 82.7792 41.562Z" fill="white"></path><path d="M120.598 37.025C121.618 37.025 122.101 36.5153 122.101 35.9207C122.101 34.5561 119.897 35.0711 119.897 34.28C119.897 33.9986 120.131 33.7756 120.704 33.7756C121.028 33.7756 121.395 33.8712 121.729 34.0677L121.947 33.5314C121.623 33.319 121.156 33.2022 120.71 33.2022C119.69 33.2022 119.212 33.7119 119.212 34.3119C119.212 35.6924 121.421 35.1667 121.421 35.9684C121.421 36.2445 121.177 36.4516 120.598 36.4516C120.142 36.4516 119.669 36.2817 119.372 36.0428L119.133 36.579C119.441 36.8445 120.019 37.025 120.598 37.025Z" fill="white"></path><path d="M123.805 34.1048C123.348 34.1048 122.907 34.2216 122.605 34.4553L122.865 34.9384C123.077 34.7632 123.406 34.657 123.725 34.657C124.198 34.657 124.431 34.8853 124.431 35.2729V35.3154H123.698C122.838 35.3154 122.52 35.687 122.52 36.1596C122.52 36.6534 122.929 37.0091 123.576 37.0091C124.001 37.0091 124.309 36.871 124.468 36.6268V36.9719H125.095V35.3101C125.095 34.4924 124.622 34.1048 123.805 34.1048ZM123.714 36.5259C123.375 36.5259 123.173 36.372 123.173 36.133C123.173 35.926 123.295 35.7561 123.746 35.7561H124.431V36.0853C124.32 36.3773 124.038 36.5259 123.714 36.5259Z" fill="white"></path><path d="M127.465 36.3454C127.364 36.4251 127.231 36.4622 127.093 36.4622C126.839 36.4622 126.7 36.3136 126.7 36.0375V34.6889H127.46V34.1579H126.7V33.5102H126.037V34.1579H125.57V34.6889H126.037V36.0534C126.037 36.6799 126.393 37.0091 127.014 37.0091C127.253 37.0091 127.492 36.9454 127.651 36.818L127.465 36.3454Z" fill="white"></path><path d="M128.531 33.6695C128.781 33.6695 128.956 33.4889 128.956 33.2553C128.956 33.0376 128.776 32.873 128.531 32.873C128.287 32.873 128.107 33.0483 128.107 33.2713C128.107 33.4942 128.287 33.6695 128.531 33.6695ZM128.197 36.9719H128.861V34.1367H128.197V36.9719Z" fill="white"></path><path d="M130.608 37.0091C131.404 37.0091 131.893 36.664 131.893 36.133C131.893 35.0234 130.14 35.5331 130.14 34.9597C130.14 34.7738 130.332 34.6411 130.735 34.6411C131.006 34.6411 131.277 34.6942 131.547 34.8535L131.802 34.3491C131.547 34.1951 131.117 34.1048 130.74 34.1048C129.976 34.1048 129.493 34.4553 129.493 34.9915C129.493 36.1224 131.245 35.6127 131.245 36.1543C131.245 36.3507 131.07 36.4675 130.65 36.4675C130.294 36.4675 129.912 36.3507 129.663 36.1861L129.408 36.6905C129.663 36.871 130.135 37.0091 130.608 37.0091Z" fill="white"></path><path d="M133.616 33.5314C133.754 33.5314 133.882 33.5792 133.983 33.6482L134.168 33.1491C134.02 33.0429 133.797 32.9952 133.568 32.9952C132.91 32.9952 132.554 33.3828 132.554 33.9774V34.1579H132.087V34.6889H132.554V36.9719H133.218V34.6889H133.977V34.1579H133.197V33.988C133.197 33.6854 133.34 33.5314 133.616 33.5314Z" fill="white"></path><path d="M135.455 34.1048C134.999 34.1048 134.558 34.2216 134.255 34.4553L134.516 34.9384C134.728 34.7632 135.057 34.657 135.376 34.657C135.848 34.657 136.082 34.8853 136.082 35.2729V35.3154H135.349C134.489 35.3154 134.17 35.687 134.17 36.1596C134.17 36.6534 134.579 37.0091 135.227 37.0091C135.652 37.0091 135.96 36.871 136.119 36.6268V36.9719H136.745V35.3101C136.745 34.4924 136.273 34.1048 135.455 34.1048ZM135.365 36.5259C135.025 36.5259 134.823 36.372 134.823 36.133C134.823 35.926 134.946 35.7561 135.397 35.7561H136.082V36.0853C135.97 36.3773 135.689 36.5259 135.365 36.5259Z" fill="white"></path><path d="M138.919 36.441C138.43 36.441 138.059 36.1065 138.059 35.5543C138.059 35.0074 138.43 34.6676 138.919 34.6676C139.2 34.6676 139.455 34.7897 139.625 35.0605L140.134 34.7632C139.917 34.3331 139.476 34.1048 138.924 34.1048C138.027 34.1048 137.39 34.7048 137.39 35.5543C137.39 36.3029 137.883 36.8604 138.611 36.9825L138.478 37.4763H138.643C138.844 37.4763 138.924 37.5507 138.924 37.6515C138.924 37.7683 138.839 37.8427 138.643 37.8427C138.51 37.8427 138.393 37.8161 138.282 37.7577L138.159 38.071C138.292 38.1453 138.457 38.1825 138.648 38.1825C139.083 38.1825 139.37 37.986 139.37 37.6781C139.37 37.4498 139.221 37.2693 138.908 37.2321L138.966 37.0091C139.497 36.9985 139.922 36.7595 140.134 36.3454L139.625 36.0481C139.455 36.3189 139.2 36.441 138.919 36.441Z" fill="white"></path><path d="M141.51 33.3987C141.701 33.3987 141.882 33.7491 142.232 33.7491C142.572 33.7491 142.795 33.4677 142.805 33.0536H142.45C142.439 33.2447 142.338 33.3562 142.19 33.3562C141.998 33.3562 141.818 33.0058 141.467 33.0058C141.128 33.0058 140.905 33.2819 140.894 33.7172H141.25C141.26 33.5155 141.361 33.3987 141.51 33.3987ZM141.791 34.1048C141.335 34.1048 140.894 34.2216 140.591 34.4553L140.852 34.9384C141.064 34.7632 141.393 34.657 141.712 34.657C142.184 34.657 142.418 34.8853 142.418 35.2729V35.3154H141.685C140.825 35.3154 140.506 35.687 140.506 36.1596C140.506 36.6534 140.915 37.0091 141.563 37.0091C141.988 37.0091 142.296 36.871 142.455 36.6268V36.9719H143.082V35.3101C143.082 34.4924 142.609 34.1048 141.791 34.1048ZM141.701 36.5259C141.361 36.5259 141.16 36.372 141.16 36.133C141.16 35.926 141.282 35.7561 141.733 35.7561H142.418V36.0853C142.306 36.3773 142.025 36.5259 141.701 36.5259Z" fill="white"></path><path d="M145.233 37.0091C146.115 37.0091 146.747 36.4038 146.747 35.5543C146.747 34.7048 146.115 34.1048 145.233 34.1048C144.363 34.1048 143.726 34.7048 143.726 35.5543C143.726 36.4038 144.363 37.0091 145.233 37.0091ZM145.233 36.441C144.756 36.441 144.395 36.0959 144.395 35.5543C144.395 35.0127 144.756 34.6676 145.233 34.6676C145.717 34.6676 146.078 35.0127 146.078 35.5543C146.078 36.0959 145.717 36.441 145.233 36.441Z" fill="white"></path><path d="M121.984 41.2658C121.745 41.4038 121.485 41.4569 121.219 41.4569C120.434 41.4569 119.876 40.9047 119.876 40.1508C119.876 39.3809 120.434 38.8447 121.225 38.8447C121.623 38.8447 121.957 38.9774 122.249 39.2694L122.685 38.8447C122.334 38.4464 121.814 38.2394 121.193 38.2394C120.03 38.2394 119.181 39.0411 119.181 40.1508C119.181 41.2604 120.03 42.0622 121.182 42.0622C121.708 42.0622 122.249 41.9029 122.637 41.5896V40.1083H121.984V41.2658Z" fill="white"></path><path d="M124.567 39.142C124.11 39.142 123.67 39.2588 123.367 39.4924L123.627 39.9756C123.839 39.8004 124.169 39.6942 124.487 39.6942C124.96 39.6942 125.193 39.9225 125.193 40.3101V40.3525H124.461C123.6 40.3525 123.282 40.7242 123.282 41.1967C123.282 41.6905 123.691 42.0462 124.338 42.0462C124.763 42.0462 125.071 41.9082 125.23 41.664V42.0091H125.857V40.3472C125.857 39.5296 125.384 39.142 124.567 39.142ZM124.477 41.5631C124.137 41.5631 123.935 41.4091 123.935 41.1702C123.935 40.9631 124.057 40.7932 124.508 40.7932H125.193V41.1224C125.082 41.4144 124.8 41.5631 124.477 41.5631Z" fill="white"></path><path d="M127.341 39.588V39.1738H126.709V42.0091H127.372V40.6339C127.372 40.0552 127.691 39.7579 128.195 39.7579C128.243 39.7579 128.291 39.7632 128.349 39.7738V39.142C127.877 39.142 127.532 39.2906 127.341 39.588Z" fill="white"></path><path d="M129.98 39.142C129.523 39.142 129.083 39.2588 128.78 39.4924L129.04 39.9756C129.253 39.8004 129.582 39.6942 129.9 39.6942C130.373 39.6942 130.606 39.9225 130.606 40.3101V40.3525H129.874C129.014 40.3525 128.695 40.7242 128.695 41.1967C128.695 41.6905 129.104 42.0462 129.752 42.0462C130.176 42.0462 130.484 41.9082 130.644 41.664V42.0091H131.27V40.3472C131.27 39.5296 130.798 39.142 129.98 39.142ZM129.89 41.5631C129.55 41.5631 129.348 41.4091 129.348 41.1702C129.348 40.9631 129.47 40.7932 129.922 40.7932H130.606V41.1224C130.495 41.4144 130.214 41.5631 129.89 41.5631Z" fill="white"></path><path d="M133.731 39.142C133.316 39.142 132.971 39.28 132.754 39.5402V39.1738H132.122V42.0091H132.786V40.5755C132.786 40.0074 133.104 39.7207 133.577 39.7207C134.001 39.7207 134.251 39.9649 134.251 40.4693V42.0091H134.915V40.3844C134.915 39.5296 134.41 39.142 133.731 39.142Z" fill="white"></path><path d="M137.275 41.3826C137.174 41.4622 137.041 41.4994 136.903 41.4994C136.649 41.4994 136.51 41.3507 136.51 41.0746V39.726H137.27V39.1951H136.51V38.5473H135.847V39.1951H135.38V39.726H135.847V41.0905C135.847 41.7171 136.203 42.0462 136.824 42.0462C137.063 42.0462 137.302 41.9825 137.461 41.8551L137.275 41.3826Z" fill="white"></path><path d="M138.341 38.7066C138.591 38.7066 138.766 38.5261 138.766 38.2925C138.766 38.0748 138.586 37.9102 138.341 37.9102C138.097 37.9102 137.917 38.0854 137.917 38.3084C137.917 38.5314 138.097 38.7066 138.341 38.7066ZM138.007 42.0091H138.671V39.1738H138.007V42.0091Z" fill="white"></path><path d="M141.655 38.0695V39.5243C141.432 39.2641 141.108 39.142 140.742 39.142C139.919 39.142 139.308 39.7101 139.308 40.5915C139.308 41.4728 139.919 42.0462 140.742 42.0462C141.129 42.0462 141.458 41.9135 141.681 41.6427V42.0091H142.318V38.0695H141.655ZM140.821 41.4781C140.343 41.4781 139.977 41.133 139.977 40.5915C139.977 40.0499 140.343 39.7048 140.821 39.7048C141.299 39.7048 141.665 40.0499 141.665 40.5915C141.665 41.133 141.299 41.4781 140.821 41.4781Z" fill="white"></path><path d="M144.27 39.142C143.813 39.142 143.372 39.2588 143.07 39.4924L143.33 39.9756C143.542 39.8004 143.872 39.6942 144.19 39.6942C144.663 39.6942 144.896 39.9225 144.896 40.3101V40.3525H144.164C143.303 40.3525 142.985 40.7242 142.985 41.1967C142.985 41.6905 143.394 42.0462 144.041 42.0462C144.466 42.0462 144.774 41.9082 144.933 41.664V42.0091H145.56V40.3472C145.56 39.5296 145.087 39.142 144.27 39.142ZM144.179 41.5631C143.84 41.5631 143.638 41.4091 143.638 41.1702C143.638 40.9631 143.76 40.7932 144.211 40.7932H144.896V41.1224C144.785 41.4144 144.503 41.5631 144.179 41.5631Z" fill="white"></path><path d="M176.947 33.2553H175.418V36.9719H176.108V35.8994H176.947C177.924 35.8994 178.529 35.395 178.529 34.5774C178.529 33.7544 177.924 33.2553 176.947 33.2553ZM176.915 35.3154H176.108V33.8394H176.915C177.521 33.8394 177.834 34.1101 177.834 34.5774C177.834 35.0446 177.521 35.3154 176.915 35.3154Z" fill="white"></path><path d="M179.761 34.5508V34.1367H179.129V36.9719H179.793V35.5968C179.793 35.0181 180.111 34.7207 180.616 34.7207C180.663 34.7207 180.711 34.726 180.77 34.7367V34.1048C180.297 34.1048 179.952 34.2535 179.761 34.5508Z" fill="white"></path><path d="M181.667 33.6695C181.917 33.6695 182.092 33.4889 182.092 33.2553C182.092 33.0376 181.911 32.873 181.667 32.873C181.423 32.873 181.242 33.0483 181.242 33.2713C181.242 33.4942 181.423 33.6695 181.667 33.6695ZM181.333 36.9719H181.996V34.1367H181.333V36.9719Z" fill="white"></path><path d="M184.885 34.1367L183.977 36.2392L183.096 34.1367H182.405L183.621 36.9719H184.306L185.522 34.1367H184.885Z" fill="white"></path><path d="M186.932 34.1048C186.475 34.1048 186.035 34.2216 185.732 34.4553L185.992 34.9384C186.204 34.7632 186.534 34.657 186.852 34.657C187.325 34.657 187.558 34.8853 187.558 35.2729V35.3154H186.826C185.965 35.3154 185.647 35.687 185.647 36.1596C185.647 36.6534 186.056 37.0091 186.703 37.0091C187.128 37.0091 187.436 36.871 187.595 36.6268V36.9719H188.222V35.3101C188.222 34.4924 187.749 34.1048 186.932 34.1048ZM186.842 36.5259C186.502 36.5259 186.3 36.372 186.3 36.133C186.3 35.926 186.422 35.7561 186.873 35.7561H187.558V36.0852C187.447 36.3773 187.165 36.5259 186.842 36.5259Z" fill="white"></path><path d="M190.4 37.0091C190.953 37.0091 191.393 36.7702 191.611 36.3454L191.101 36.0481C190.931 36.3189 190.677 36.441 190.395 36.441C189.907 36.441 189.535 36.1065 189.535 35.5543C189.535 35.0074 189.907 34.6676 190.395 34.6676C190.677 34.6676 190.931 34.7897 191.101 35.0605L191.611 34.7632C191.393 34.3331 190.953 34.1048 190.4 34.1048C189.503 34.1048 188.866 34.7048 188.866 35.5543C188.866 36.4038 189.503 37.0091 190.4 37.0091Z" fill="white"></path><path d="M192.519 33.6695C192.769 33.6695 192.944 33.4889 192.944 33.2553C192.944 33.0376 192.763 32.873 192.519 32.873C192.275 32.873 192.094 33.0483 192.094 33.2713C192.094 33.4942 192.275 33.6695 192.519 33.6695ZM192.185 36.9719H192.848V34.1367H192.185V36.9719Z" fill="white"></path><path d="M195.833 33.0323V34.4871C195.61 34.227 195.286 34.1048 194.919 34.1048C194.096 34.1048 193.486 34.6729 193.486 35.5543C193.486 36.4357 194.096 37.0091 194.919 37.0091C195.307 37.0091 195.636 36.8764 195.859 36.6056V36.9719H196.496V33.0323H195.833ZM194.999 36.441C194.521 36.441 194.155 36.0959 194.155 35.5543C194.155 35.0127 194.521 34.6676 194.999 34.6676C195.477 34.6676 195.843 35.0127 195.843 35.5543C195.843 36.0959 195.477 36.441 194.999 36.441Z" fill="white"></path><path d="M198.448 34.1048C197.991 34.1048 197.55 34.2216 197.248 34.4553L197.508 34.9384C197.72 34.7632 198.049 34.657 198.368 34.657C198.841 34.657 199.074 34.8853 199.074 35.2729V35.3154H198.341C197.481 35.3154 197.163 35.687 197.163 36.1596C197.163 36.6534 197.572 37.0091 198.219 37.0091C198.644 37.0091 198.952 36.871 199.111 36.6268V36.9719H199.738V35.3101C199.738 34.4924 199.265 34.1048 198.448 34.1048ZM198.357 36.5259C198.018 36.5259 197.816 36.372 197.816 36.133C197.816 35.926 197.938 35.7561 198.389 35.7561H199.074V36.0852C198.963 36.3773 198.681 36.5259 198.357 36.5259Z" fill="white"></path><path d="M202.729 33.0323V34.4871C202.506 34.227 202.182 34.1048 201.815 34.1048C200.992 34.1048 200.382 34.6729 200.382 35.5543C200.382 36.4357 200.992 37.0091 201.815 37.0091C202.203 37.0091 202.532 36.8764 202.755 36.6056V36.9719H203.392V33.0323H202.729ZM201.895 36.441C201.417 36.441 201.051 36.0959 201.051 35.5543C201.051 35.0127 201.417 34.6676 201.895 34.6676C202.373 34.6676 202.739 35.0127 202.739 35.5543C202.739 36.0959 202.373 36.441 201.895 36.441Z" fill="white"></path><path d="M206.926 35.5702C206.926 34.6836 206.321 34.1048 205.492 34.1048C204.648 34.1048 204.027 34.7101 204.027 35.5543C204.027 36.3985 204.643 37.0091 205.593 37.0091C206.082 37.0091 206.48 36.8498 206.735 36.5472L206.379 36.1383C206.177 36.3454 205.928 36.4463 205.609 36.4463C205.115 36.4463 204.77 36.1808 204.691 35.7667H206.915C206.921 35.703 206.926 35.6233 206.926 35.5702ZM205.492 34.6358C205.928 34.6358 206.241 34.9172 206.294 35.326H204.685C204.749 34.9119 205.062 34.6358 205.492 34.6358Z" fill="white"></path><path d="M176.947 38.2925H175.418V42.0091H176.108V40.9366H176.947C177.924 40.9366 178.529 40.4322 178.529 39.6145C178.529 38.7916 177.924 38.2925 176.947 38.2925ZM176.915 40.3525H176.108V38.8765H176.915C177.521 38.8765 177.834 39.1473 177.834 39.6145C177.834 40.0817 177.521 40.3525 176.915 40.3525Z" fill="white"></path><path d="M179.761 39.588V39.1738H179.129V42.0091H179.793V40.6339C179.793 40.0552 180.111 39.7579 180.616 39.7579C180.663 39.7579 180.711 39.7632 180.77 39.7738V39.142C180.297 39.142 179.952 39.2906 179.761 39.588Z" fill="white"></path><path d="M182.581 42.0462C183.462 42.0462 184.094 41.441 184.094 40.5915C184.094 39.7419 183.462 39.142 182.581 39.142C181.71 39.142 181.073 39.7419 181.073 40.5915C181.073 41.441 181.71 42.0462 182.581 42.0462ZM182.581 41.4781C182.103 41.4781 181.742 41.133 181.742 40.5915C181.742 40.0499 182.103 39.7048 182.581 39.7048C183.064 39.7048 183.425 40.0499 183.425 40.5915C183.425 41.133 183.064 41.4781 182.581 41.4781Z" fill="white"></path><path d="M186.247 41.3826C186.146 41.4622 186.014 41.4994 185.876 41.4994C185.621 41.4994 185.483 41.3507 185.483 41.0746V39.726H186.242V39.1951H185.483V38.5473H184.819V39.1951H184.352V39.726H184.819V41.0905C184.819 41.7171 185.175 42.0462 185.796 42.0462C186.035 42.0462 186.274 41.9825 186.433 41.8551L186.247 41.3826Z" fill="white"></path><path d="M189.551 40.6074C189.551 39.7207 188.946 39.142 188.117 39.142C187.273 39.142 186.652 39.7473 186.652 40.5915C186.652 41.4357 187.268 42.0462 188.218 42.0462C188.707 42.0462 189.105 41.887 189.36 41.5843L189.004 41.1755C188.802 41.3826 188.553 41.4834 188.234 41.4834C187.74 41.4834 187.395 41.218 187.316 40.8038H189.54C189.546 40.7401 189.551 40.6605 189.551 40.6074ZM188.117 39.6729C188.553 39.6729 188.866 39.9543 188.919 40.3631H187.31C187.374 39.949 187.687 39.6729 188.117 39.6729Z" fill="white"></path><path d="M192.371 39.1738V39.5508C192.137 39.2694 191.787 39.142 191.388 39.142C190.576 39.142 189.955 39.6835 189.955 40.5065C189.955 41.3295 190.576 41.8816 191.388 41.8816C191.771 41.8816 192.105 41.7595 192.339 41.5047V41.6533C192.339 42.2268 192.063 42.5135 191.436 42.5135C191.043 42.5135 190.64 42.3807 190.39 42.1737L190.093 42.6727C190.417 42.9382 190.942 43.0763 191.473 43.0763C192.466 43.0763 193.003 42.609 193.003 41.579V39.1738H192.371ZM191.489 41.3188C190.985 41.3188 190.624 40.9897 190.624 40.5065C190.624 40.0287 190.985 39.7048 191.489 39.7048C191.988 39.7048 192.349 40.0287 192.349 40.5065C192.349 40.9897 191.988 41.3188 191.489 41.3188Z" fill="white"></path><path d="M194.21 38.7066C194.459 38.7066 194.634 38.5261 194.634 38.2925C194.634 38.0748 194.454 37.9102 194.21 37.9102C193.965 37.9102 193.785 38.0854 193.785 38.3084C193.785 38.5314 193.965 38.7066 194.21 38.7066ZM193.875 42.0091H194.539V39.1738H193.875V42.0091Z" fill="white"></path><path d="M197.523 38.0695V39.5243C197.3 39.2641 196.976 39.142 196.61 39.142C195.787 39.142 195.176 39.7101 195.176 40.5915C195.176 41.4728 195.787 42.0462 196.61 42.0462C196.997 42.0462 197.326 41.9135 197.549 41.6427V42.0091H198.187V38.0695H197.523ZM196.689 41.4781C196.212 41.4781 195.845 41.133 195.845 40.5915C195.845 40.0499 196.212 39.7048 196.689 39.7048C197.167 39.7048 197.534 40.0499 197.534 40.5915C197.534 41.133 197.167 41.4781 196.689 41.4781Z" fill="white"></path><path d="M200.138 39.142C199.681 39.142 199.241 39.2588 198.938 39.4924L199.198 39.9756C199.411 39.8004 199.74 39.6942 200.058 39.6942C200.531 39.6942 200.764 39.9225 200.764 40.3101V40.3525H200.032C199.172 40.3525 198.853 40.7242 198.853 41.1967C198.853 41.6905 199.262 42.0462 199.91 42.0462C200.334 42.0462 200.642 41.9082 200.802 41.664V42.0091H201.428V40.3472C201.428 39.5296 200.956 39.142 200.138 39.142ZM200.048 41.5631C199.708 41.5631 199.506 41.4091 199.506 41.1702C199.506 40.9631 199.628 40.7932 200.08 40.7932H200.764V41.1224C200.653 41.4144 200.372 41.5631 200.048 41.5631Z" fill="white"></path><path d="M54.6851 30.8154L48.9883 32.7144V38.4111C48.9883 41.5577 51.5385 44.1079 54.6851 44.1079C57.8316 44.1079 60.3818 41.5577 60.3818 38.4111V32.7144L54.6851 30.8154ZM59.3137 38.4111C59.3137 40.9673 57.2412 43.0398 54.6851 43.0398C52.1289 43.0398 50.0564 40.9673 50.0564 38.4111V33.5155L54.6851 31.8836L59.3137 33.5155V38.4111Z" fill="white"></path><path d="M52.7011 36.9142C52.6516 36.8645 52.5927 36.825 52.5279 36.7981C52.4632 36.7712 52.3937 36.7573 52.3235 36.7573C52.2534 36.7573 52.1839 36.7712 52.1191 36.7981C52.0543 36.825 51.9955 36.8645 51.946 36.9142C51.8962 36.9637 51.8568 37.0225 51.8298 37.0873C51.8029 37.1521 51.7891 37.2216 51.7891 37.2918C51.7891 37.3619 51.8029 37.4314 51.8298 37.4962C51.8568 37.561 51.8962 37.6198 51.946 37.6693L53.8657 39.589L53.8968 39.6202C53.9436 39.6671 53.9992 39.7043 54.0605 39.7297C54.1217 39.7551 54.1873 39.7682 54.2536 39.7682C54.3199 39.7682 54.3855 39.7551 54.4467 39.7297C54.5079 39.7043 54.5636 39.6671 54.6104 39.6202L57.9261 36.3045C57.973 36.2576 58.0102 36.202 58.0356 36.1408C58.061 36.0796 58.0741 36.014 58.0741 35.9477C58.0741 35.8814 58.061 35.8158 58.0356 35.7545C58.0102 35.6933 57.973 35.6377 57.9261 35.5909L57.8845 35.5494C57.8377 35.5024 57.7821 35.4652 57.7209 35.4398C57.6597 35.4144 57.594 35.4014 57.5278 35.4014C57.4615 35.4014 57.3958 35.4144 57.3346 35.4398C57.2734 35.4652 57.2178 35.5024 57.171 35.5494L54.2529 38.466L52.7011 36.9142Z" fill="white"></path><path fill-rule="evenodd" clip-rule="evenodd" d="M103.181 36.6602C102.431 36.5525 101.746 36.1782 101.25 35.6058C100.754 35.0334 100.48 34.3013 100.48 33.5439V33.1241C100.48 32.3131 101.139 31.655 101.95 31.655H103.088C103.279 31.1638 103.756 30.8154 104.315 30.8154H110.078C110.343 30.8156 110.602 30.8958 110.821 31.0456C111.04 31.1954 111.209 31.4077 111.305 31.655H112.444C113.255 31.655 113.913 32.3131 113.913 33.1241V33.5439C113.913 34.3013 113.64 35.0334 113.144 35.6058C112.648 36.1782 111.962 36.5525 111.212 36.6602C111.035 37.2378 110.735 37.7704 110.334 38.222C109.933 38.6735 109.439 39.0333 108.886 39.277L109.007 40.491C109.011 40.5329 109.032 40.5917 109.102 40.6622C109.175 40.7353 109.285 40.8049 109.416 40.8528C109.653 40.9393 109.934 41.0828 110.163 41.3296C110.402 41.5899 110.555 41.9366 110.555 42.3589V42.9885H111.604C111.771 42.9885 111.931 43.0549 112.049 43.173C112.167 43.291 112.234 43.4512 112.234 43.6182C112.234 43.7852 112.167 43.9453 112.049 44.0634C111.931 44.1815 111.771 44.2478 111.604 44.2478H102.789C102.622 44.2478 102.462 44.1815 102.344 44.0634C102.226 43.9453 102.16 43.7852 102.16 43.6182C102.16 43.4512 102.226 43.291 102.344 43.173C102.462 43.0549 102.622 42.9885 102.789 42.9885H103.839V42.3589C103.839 41.9366 103.991 41.5899 104.231 41.3296C104.458 41.0828 104.74 40.9393 104.978 40.8528C105.095 40.8124 105.201 40.7474 105.291 40.6622C105.361 40.5909 105.382 40.5338 105.387 40.491L105.508 39.277C104.955 39.0332 104.461 38.6733 104.06 38.2218C103.659 37.7703 103.359 37.2377 103.182 36.6602H103.181ZM102.999 32.9142H101.95C101.894 32.9142 101.841 32.9364 101.801 32.9757C101.762 33.0151 101.74 33.0685 101.74 33.1241V33.5439C101.74 34.3666 102.265 35.0659 102.999 35.3254V32.9142ZM106.741 39.6053L106.64 40.616C106.562 41.3926 105.92 41.8501 105.408 42.0357C105.314 42.0649 105.228 42.1155 105.157 42.1834C105.126 42.217 105.098 42.2615 105.098 42.3597V42.9894H109.295V42.3597C109.295 42.2615 109.268 42.217 109.237 42.1834C109.165 42.1154 109.079 42.0649 108.985 42.0357C108.474 41.8501 107.831 41.3926 107.754 40.6169L107.653 39.6061C107.35 39.6389 107.044 39.6389 106.741 39.6061V39.6053ZM111.394 35.3262V32.9142H112.444C112.499 32.9142 112.553 32.9364 112.592 32.9757C112.631 33.0151 112.654 33.0685 112.654 33.1241V33.5439C112.654 33.9346 112.533 34.3157 112.307 34.6348C112.082 34.9539 111.763 35.1951 111.394 35.3254V35.3262ZM104.258 32.1318C104.258 32.1007 104.284 32.0747 104.315 32.0747H110.078C110.109 32.0747 110.135 32.0999 110.135 32.1318V35.4328C110.135 36.2121 109.825 36.9595 109.274 37.5105C108.723 38.0616 107.976 38.3712 107.197 38.3712C106.417 38.3712 105.67 38.0616 105.119 37.5105C104.568 36.9595 104.258 36.2121 104.258 35.4328V32.1318V32.1318Z" fill="white"></path><path d="M107.198 32.8291L107.651 34.2213H109.115L107.93 35.0818L108.383 36.474L107.198 35.6136L106.014 36.474L106.467 35.0818L105.282 34.2213H106.746L107.198 32.8291Z" fill="white"></path><path d="M234.914 16.2286V10.9621C234.914 10.7317 234.959 10.5036 235.048 10.2907C235.136 10.0779 235.265 9.88449 235.428 9.7216C235.591 9.5587 235.784 9.42951 235.997 9.34138C236.21 9.25326 236.438 9.20794 236.669 9.20801H238.222C238.686 9.20897 239.131 9.39398 239.458 9.72245C239.786 10.0509 239.97 10.496 239.97 10.9601V12.081C239.97 12.5463 239.786 12.9926 239.456 13.3217C239.127 13.6508 238.681 13.8356 238.216 13.8356H236.019" stroke="white" stroke-width="0.383024" stroke-linecap="round" stroke-linejoin="round"></path><path d="M240.406 9.20703H241.079C241.27 9.20703 241.454 9.28291 241.589 9.41797C241.724 9.55303 241.8 9.73621 241.8 9.92722V13.8621" stroke="white" stroke-width="0.383024" stroke-linecap="round" stroke-linejoin="round"></path><path d="M241.655 8.59772L241.35 8.29173C241.332 8.2737 241.318 8.25227 241.308 8.22868C241.298 8.20509 241.293 8.17981 241.293 8.15427C241.293 8.12873 241.298 8.10344 241.308 8.07986C241.318 8.05627 241.332 8.03484 241.35 8.01681L241.655 7.71134C241.674 7.69326 241.695 7.67891 241.719 7.66912C241.742 7.65933 241.767 7.6543 241.793 7.6543C241.818 7.6543 241.844 7.65933 241.867 7.66912C241.891 7.67891 241.912 7.69326 241.93 7.71134L242.236 8.01681C242.254 8.03484 242.269 8.05627 242.279 8.07986C242.288 8.10344 242.293 8.12873 242.293 8.15427C242.293 8.17981 242.288 8.20509 242.279 8.22868C242.269 8.25227 242.254 8.2737 242.236 8.29173L241.93 8.59772C241.912 8.6158 241.891 8.63014 241.867 8.63993C241.844 8.64972 241.818 8.65476 241.793 8.65476C241.767 8.65476 241.742 8.64972 241.719 8.63993C241.695 8.63014 241.674 8.6158 241.655 8.59772" fill="white"></path><path d="M243.094 9.2041H243.763C244.107 9.20416 244.437 9.34085 244.68 9.58413L246.245 11.1482C246.293 11.1965 246.35 11.2349 246.413 11.261C246.476 11.2871 246.543 11.3006 246.612 11.3006C246.68 11.3006 246.747 11.2871 246.81 11.261C246.873 11.2349 246.93 11.1965 246.978 11.1482L248.539 9.58982C248.659 9.46932 248.802 9.37373 248.96 9.30852C249.117 9.24332 249.286 9.20977 249.456 9.2098H250" stroke="white" stroke-width="0.383024" stroke-linecap="round" stroke-linejoin="round"></path><path d="M243.094 13.8274H243.763C244.107 13.8274 244.437 13.6907 244.68 13.4474L246.245 11.8838C246.293 11.8355 246.35 11.7972 246.413 11.7711C246.476 11.7449 246.543 11.7314 246.612 11.7314C246.68 11.7314 246.747 11.7449 246.81 11.7711C246.873 11.7972 246.93 11.8355 246.978 11.8838L248.539 13.4417C248.659 13.5622 248.802 13.6578 248.96 13.723C249.117 13.7882 249.286 13.8218 249.456 13.8217H250" stroke="white" stroke-width="0.383024" stroke-linecap="round" stroke-linejoin="round"></path><path d="M230.928 14.8267C230.762 14.8272 230.599 14.7949 230.446 14.7317C230.294 14.6685 230.155 14.5757 230.039 14.4585L228.755 13.1782C228.71 13.1346 228.649 13.1104 228.587 13.1104C228.524 13.1104 228.463 13.1346 228.418 13.1782L227.13 14.4658C227.013 14.5829 226.875 14.6758 226.722 14.7389C226.57 14.8021 226.406 14.8344 226.241 14.8339H225.988L227.613 16.4596C227.857 16.7033 228.188 16.8402 228.533 16.8402C228.877 16.8402 229.208 16.7033 229.452 16.4596L231.082 14.8292L230.928 14.8267Z" fill="white"></path><path d="M226.24 10.2864C226.405 10.2861 226.569 10.3184 226.721 10.3816C226.874 10.4448 227.012 10.5375 227.129 10.6546L228.417 11.9427C228.462 11.9873 228.522 12.0124 228.586 12.0124C228.649 12.0124 228.709 11.9873 228.754 11.9427L230.038 10.6592C230.154 10.5422 230.293 10.4494 230.445 10.3862C230.598 10.3231 230.761 10.2907 230.927 10.2911H231.082L229.452 8.66124C229.331 8.54047 229.188 8.44466 229.03 8.37929C228.873 8.31392 228.703 8.28027 228.533 8.28027C228.362 8.28027 228.193 8.31392 228.035 8.37929C227.877 8.44466 227.734 8.54047 227.613 8.66124L225.988 10.2864H226.24Z" fill="white"></path><path d="M232.43 11.6393L231.446 10.6556C231.424 10.6645 231.4 10.6693 231.376 10.6696H230.928C230.695 10.6706 230.472 10.7636 230.307 10.9285L229.021 12.2094C228.964 12.2666 228.896 12.312 228.821 12.3429C228.747 12.3738 228.667 12.3897 228.586 12.3896C228.422 12.3898 228.266 12.3252 228.15 12.2099L226.862 10.9217C226.697 10.7569 226.474 10.6638 226.24 10.6629H225.69C225.667 10.6625 225.645 10.6579 225.624 10.6494L224.635 11.6383C224.514 11.759 224.418 11.9023 224.353 12.06C224.288 12.2178 224.254 12.3868 224.254 12.5576C224.254 12.7283 224.288 12.8974 224.353 13.0551C224.418 13.2128 224.514 13.3561 224.635 13.4768L225.624 14.4657C225.645 14.4572 225.667 14.4527 225.69 14.4523H226.24C226.474 14.4511 226.697 14.3581 226.862 14.1934L228.15 12.9052C228.267 12.7932 228.423 12.7307 228.586 12.7307C228.748 12.7307 228.904 12.7932 229.021 12.9052L230.305 14.1887C230.47 14.3534 230.693 14.4465 230.926 14.4476H231.374C231.398 14.4479 231.422 14.4528 231.444 14.4621L232.427 13.4784C232.671 13.2345 232.808 12.9039 232.808 12.5591C232.808 12.2144 232.671 11.8837 232.427 11.6399" fill="white"></path><path d="M236.253 15.7813C236.171 15.785 236.09 15.7973 236.011 15.8181V16.1391C236.072 16.1603 236.135 16.171 236.199 16.1707C236.36 16.1707 236.436 16.1163 236.436 15.9745C236.436 15.8414 236.374 15.7813 236.253 15.7813V15.7813ZM235.957 16.3773V15.743H236.002L236.006 15.7705C236.088 15.7485 236.172 15.735 236.257 15.7301C236.316 15.726 236.374 15.7429 236.422 15.7777C236.448 15.803 236.468 15.8338 236.481 15.8679C236.493 15.9019 236.498 15.9383 236.494 15.9745C236.498 16.0148 236.49 16.0551 236.471 16.0912C236.453 16.1272 236.425 16.1576 236.391 16.179C236.333 16.2076 236.269 16.2218 236.204 16.2204C236.139 16.22 236.073 16.2101 236.011 16.1909V16.3773H235.957Z" fill="white"></path><path d="M236.896 15.779C236.735 15.779 236.664 15.8308 236.664 15.9711C236.664 16.1114 236.735 16.1699 236.896 16.1699C237.058 16.1699 237.128 16.1182 237.128 15.9784C237.128 15.8386 237.057 15.779 236.896 15.779V15.779ZM237.104 16.1699C237.042 16.2083 236.969 16.2264 236.896 16.2217C236.824 16.2261 236.751 16.208 236.689 16.1699C236.66 16.1469 236.638 16.117 236.623 16.0829C236.609 16.0488 236.603 16.0116 236.606 15.9748C236.603 15.9378 236.609 15.9007 236.623 15.8665C236.638 15.8324 236.661 15.8024 236.689 15.779C236.751 15.7407 236.824 15.7226 236.896 15.7273C236.969 15.7227 237.041 15.7408 237.104 15.779C237.132 15.8021 237.155 15.832 237.169 15.866C237.184 15.8999 237.19 15.937 237.186 15.9737C237.19 16.0107 237.184 16.048 237.17 16.0823C237.155 16.1166 237.133 16.1467 237.104 16.1699" fill="white"></path><path d="M237.866 16.2072L237.687 15.822H237.684L237.507 16.2072H237.461L237.27 15.7412H237.33L237.489 16.1311H237.492L237.665 15.7412H237.717L237.894 16.1311H237.898L238.053 15.7412H238.111L237.92 16.2072H237.866Z" fill="white"></path><path d="M238.452 15.7784C238.303 15.7784 238.253 15.8446 238.245 15.9404H238.662C238.658 15.8343 238.604 15.7784 238.455 15.7784H238.452ZM238.455 16.22C238.386 16.2273 238.318 16.2088 238.262 16.1682C238.235 16.1437 238.214 16.1135 238.201 16.0798C238.187 16.0461 238.182 16.0098 238.184 15.9736C238.182 15.936 238.189 15.8985 238.204 15.864C238.219 15.8294 238.242 15.7989 238.271 15.7748C238.325 15.741 238.388 15.7247 238.452 15.7282C238.517 15.7241 238.582 15.7398 238.638 15.7732C238.705 15.8182 238.718 15.8975 238.718 15.9875H238.241C238.241 16.0828 238.274 16.1677 238.454 16.1677C238.535 16.1658 238.616 16.1568 238.695 16.1408V16.1895C238.614 16.2063 238.532 16.216 238.45 16.2185" fill="white"></path><path d="M238.875 16.2074V15.7415H238.92L238.924 15.7689C238.999 15.7444 239.076 15.7308 239.155 15.7285H239.161V15.7803H239.148C239.074 15.7819 239 15.7943 238.929 15.817V16.2064L238.875 16.2074Z" fill="white"></path><path d="M239.478 15.7788C239.329 15.7788 239.278 15.845 239.271 15.9408H239.688C239.684 15.8347 239.629 15.7788 239.481 15.7788H239.478ZM239.481 16.2204C239.413 16.2275 239.344 16.2091 239.288 16.1686C239.263 16.1438 239.243 16.1136 239.23 16.0802C239.218 16.0468 239.213 16.0111 239.216 15.9755C239.214 15.9379 239.22 15.9004 239.235 15.8659C239.25 15.8314 239.273 15.8008 239.302 15.7767C239.356 15.7429 239.42 15.7266 239.483 15.7301C239.548 15.7261 239.613 15.7418 239.669 15.7751C239.736 15.8202 239.749 15.8994 239.749 15.9895H239.273C239.273 16.0848 239.306 16.1697 239.486 16.1697C239.567 16.1677 239.647 16.1587 239.726 16.1427V16.1914C239.646 16.2082 239.564 16.2179 239.481 16.2204" fill="white"></path><path d="M240.336 15.8099C240.275 15.7889 240.212 15.7784 240.148 15.7789C239.987 15.7789 239.911 15.8332 239.911 15.9746C239.911 16.1159 239.973 16.1677 240.095 16.1677C240.176 16.1639 240.257 16.1519 240.336 16.132V15.8099ZM240.346 16.2065L240.341 16.1786C240.259 16.2007 240.175 16.2144 240.09 16.2195C240.031 16.224 239.973 16.2069 239.926 16.1713C239.899 16.1462 239.879 16.1154 239.867 16.0813C239.854 16.0472 239.849 16.0108 239.853 15.9746C239.85 15.9344 239.858 15.8942 239.876 15.8583C239.894 15.8224 239.922 15.7923 239.956 15.7711C240.014 15.7418 240.079 15.7274 240.144 15.7292C240.209 15.7299 240.274 15.7399 240.336 15.7587V15.5459H240.391V16.2065H240.346Z" fill="white"></path><path d="M241.187 15.7804C241.106 15.7841 241.025 15.7964 240.946 15.8172V16.1372C241.006 16.1591 241.07 16.1702 241.134 16.1698C241.295 16.1698 241.371 16.1154 241.371 15.9736C241.371 15.8405 241.308 15.7804 241.187 15.7804V15.7804ZM241.326 16.1781C241.268 16.2067 241.204 16.2209 241.139 16.2195C241.068 16.2188 240.999 16.2069 240.932 16.1843V16.2065H240.895V15.5459H240.946V15.7659C241.027 15.7454 241.109 15.7326 241.192 15.7276C241.251 15.7236 241.309 15.7404 241.357 15.7753C241.383 15.8006 241.403 15.8314 241.415 15.8654C241.428 15.8995 241.433 15.9359 241.429 15.972C241.432 16.0123 241.424 16.0527 241.406 16.0887C241.388 16.1248 241.36 16.1551 241.326 16.1765" fill="white"></path><path d="M241.499 16.3878V16.336C241.526 16.336 241.551 16.3407 241.568 16.3407C241.599 16.3433 241.631 16.3352 241.657 16.3179C241.684 16.3005 241.703 16.2748 241.714 16.2449L241.731 16.2082L241.488 15.7422H241.551L241.758 16.1429H241.762L241.959 15.7422H242.021L241.762 16.2636C241.714 16.3583 241.663 16.3894 241.568 16.3894C241.545 16.3904 241.522 16.3899 241.499 16.3878Z" fill="white"></path><path d="M242.77 15.9422H242.59V16.1052H242.771C242.895 16.1052 242.942 16.0913 242.942 16.0229C242.942 15.9546 242.877 15.9422 242.77 15.9422V15.9422ZM242.737 15.6781H242.59V15.8438H242.738C242.86 15.8438 242.909 15.8293 242.909 15.7599C242.909 15.6905 242.847 15.6781 242.737 15.6781V15.6781ZM243.017 16.1632C242.95 16.2052 242.87 16.2072 242.724 16.2072H242.449V15.5771H242.717C242.844 15.5771 242.921 15.5771 242.985 15.6175C243.006 15.6303 243.024 15.6488 243.035 15.6709C243.047 15.6931 243.052 15.718 243.05 15.7428C243.051 15.7739 243.042 15.8046 243.024 15.83C243.006 15.8554 242.98 15.8739 242.95 15.8826V15.8862C243.031 15.9044 243.083 15.9458 243.083 16.0354C243.085 16.0608 243.08 16.0863 243.068 16.1089C243.057 16.1315 243.039 16.1503 243.017 16.1632" fill="white"></path><path d="M243.635 16.0121C243.584 16.0075 243.526 16.0049 243.468 16.0049C243.374 16.0049 243.34 16.0241 243.34 16.0675C243.34 16.111 243.368 16.1297 243.44 16.1297C243.506 16.1274 243.572 16.1182 243.635 16.1022V16.0121ZM243.663 16.2073L243.659 16.1794C243.577 16.2027 243.493 16.2164 243.407 16.2203C243.358 16.2235 243.309 16.2116 243.267 16.1861C243.25 16.1731 243.236 16.156 243.227 16.1364C243.218 16.1168 243.214 16.0953 243.215 16.0738C243.214 16.0473 243.221 16.0212 243.235 15.9987C243.249 15.9763 243.269 15.9586 243.293 15.9479C243.349 15.9271 243.408 15.9183 243.468 15.9221C243.516 15.9221 243.582 15.9246 243.636 15.9283V15.9221C243.636 15.8496 243.588 15.8258 243.457 15.8258C243.406 15.8258 243.346 15.8283 243.287 15.834V15.7398C243.352 15.7346 243.425 15.731 243.486 15.731C243.561 15.7244 243.636 15.7393 243.702 15.774C243.754 15.8118 243.765 15.8641 243.765 15.9334V16.2084L243.663 16.2073Z" fill="white"></path><path d="M244.372 16.2073V15.9484C244.372 15.864 244.328 15.8335 244.251 15.8335C244.187 15.8362 244.123 15.8461 244.061 15.863V16.2052H243.934V15.7392H244.037L244.042 15.7682C244.123 15.7448 244.206 15.7307 244.29 15.7263C244.347 15.7218 244.404 15.7388 244.449 15.7739C244.468 15.7928 244.483 15.8157 244.491 15.8408C244.5 15.866 244.504 15.8928 244.501 15.9194V16.2036L244.372 16.2073Z" fill="white"></path><path d="M244.865 16.2196C244.803 16.2244 244.742 16.207 244.692 16.1705C244.665 16.1454 244.645 16.1147 244.632 16.0806C244.62 16.0465 244.615 16.0099 244.618 15.9737C244.616 15.9353 244.623 15.8969 244.64 15.8622C244.656 15.8275 244.682 15.7976 244.713 15.7754C244.775 15.7406 244.846 15.7246 244.917 15.7293C244.969 15.7293 245.023 15.733 245.081 15.7381V15.8375C245.034 15.8334 244.977 15.8293 244.933 15.8293C244.809 15.8293 244.751 15.8681 244.751 15.9747C244.751 16.0814 244.795 16.1182 244.896 16.1182C244.961 16.1161 245.027 16.1082 245.091 16.0943V16.1901C245.017 16.2072 244.941 16.2171 244.865 16.2196Z" fill="white"></path><path d="M245.476 15.8271C245.353 15.8271 245.299 15.8659 245.299 15.9715C245.299 16.0772 245.35 16.1222 245.476 16.1222C245.602 16.1222 245.652 16.0844 245.652 15.9788C245.652 15.8732 245.6 15.8271 245.476 15.8271V15.8271ZM245.699 16.1709C245.631 16.2092 245.554 16.2263 245.476 16.2201C245.398 16.2261 245.321 16.209 245.253 16.1709C245.222 16.1487 245.198 16.1189 245.183 16.0846C245.168 16.0503 245.161 16.0126 245.165 15.9752C245.161 15.9376 245.168 15.8997 245.183 15.8653C245.198 15.8308 245.222 15.8009 245.253 15.7784C245.321 15.7405 245.399 15.7236 245.476 15.7298C245.554 15.7238 245.631 15.7407 245.699 15.7784C245.729 15.8008 245.753 15.8306 245.768 15.8649C245.783 15.8992 245.789 15.9368 245.785 15.9741C245.789 16.0116 245.783 16.0494 245.768 16.0838C245.753 16.1183 245.729 16.1482 245.699 16.1709" fill="white"></path><path d="M246.532 16.2195C246.451 16.2246 246.371 16.2014 246.306 16.1538C246.23 16.0916 246.207 15.9948 246.207 15.8908C246.205 15.839 246.215 15.7874 246.237 15.7407C246.26 15.6939 246.293 15.6535 246.335 15.6231C246.417 15.5781 246.509 15.5574 246.602 15.5635C246.672 15.5635 246.743 15.5682 246.821 15.5744V15.6878C246.755 15.6821 246.672 15.6775 246.608 15.6775C246.428 15.6775 246.352 15.7458 246.352 15.8908C246.352 16.0357 246.422 16.1051 246.555 16.1051C246.649 16.102 246.743 16.0893 246.835 16.0673V16.1802C246.736 16.2035 246.634 16.2169 246.532 16.22" fill="white"></path><path d="M247.217 15.8122C247.109 15.8122 247.068 15.8506 247.062 15.9215H247.372C247.369 15.8459 247.325 15.8122 247.217 15.8122ZM247.198 16.2197C247.128 16.226 247.059 16.2077 247.001 16.1679C246.975 16.1433 246.955 16.1131 246.942 16.0794C246.929 16.0458 246.924 16.0097 246.927 15.9738C246.925 15.9366 246.931 15.8995 246.947 15.8654C246.962 15.8314 246.985 15.8015 247.014 15.7781C247.075 15.7413 247.146 15.7243 247.217 15.7294C247.287 15.7251 247.357 15.7412 247.419 15.776C247.493 15.8278 247.499 15.9096 247.5 16.0054H247.059C247.062 16.0763 247.1 16.1219 247.23 16.1219C247.313 16.12 247.396 16.1121 247.478 16.098V16.1892C247.385 16.2067 247.292 16.2169 247.198 16.2197Z" fill="white"></path><path d="M248.076 16.2073V15.9484C248.076 15.864 248.033 15.8335 247.956 15.8335C247.892 15.8362 247.829 15.8461 247.767 15.863V16.2052H247.637V15.7392H247.743L247.748 15.7682C247.828 15.7447 247.912 15.7307 247.996 15.7263C248.053 15.7218 248.11 15.7388 248.155 15.7739C248.174 15.7928 248.188 15.8157 248.197 15.8408C248.206 15.866 248.209 15.8928 248.207 15.9194V16.2036L248.076 16.2073Z" fill="white"></path><path d="M248.575 16.2198C248.547 16.2225 248.518 16.2179 248.491 16.2063C248.465 16.1947 248.442 16.1765 248.425 16.1535C248.399 16.1112 248.387 16.062 248.391 16.0127V15.8387H248.297V15.7424H248.391L248.405 15.6016H248.52V15.7424H248.702V15.8387H248.52V15.9878C248.518 16.0179 248.522 16.048 248.532 16.0763C248.54 16.0914 248.553 16.1036 248.568 16.1113C248.583 16.119 248.6 16.1218 248.617 16.1193C248.648 16.1188 248.679 16.1157 248.71 16.11V16.2032C248.665 16.2129 248.621 16.2184 248.575 16.2198" fill="white"></path><path d="M248.828 16.2074V15.7415H248.932L248.936 15.7705C249.011 15.7454 249.088 15.7313 249.166 15.7285H249.183V15.8393C249.168 15.8393 249.151 15.8393 249.138 15.8393C249.076 15.8395 249.015 15.8475 248.955 15.8631V16.2064L248.828 16.2074Z" fill="white"></path><path d="M249.657 16.0122C249.603 16.0075 249.547 16.0049 249.489 16.0049C249.395 16.0049 249.361 16.0241 249.361 16.0676C249.361 16.111 249.389 16.1297 249.462 16.1297C249.528 16.1273 249.593 16.1181 249.657 16.1022V16.0122ZM249.685 16.2073L249.679 16.1809C249.597 16.2042 249.513 16.218 249.427 16.2218C249.378 16.225 249.329 16.2131 249.286 16.1877C249.269 16.1746 249.256 16.1575 249.246 16.1379C249.237 16.1183 249.233 16.0968 249.235 16.0753C249.233 16.0482 249.241 16.0213 249.255 15.9984C249.27 15.9756 249.292 15.958 249.317 15.948C249.372 15.9276 249.431 15.9191 249.49 15.9231C249.539 15.9231 249.605 15.9257 249.659 15.9293V15.9221C249.659 15.8496 249.611 15.8258 249.481 15.8258C249.429 15.8258 249.368 15.8284 249.309 15.834V15.7398C249.375 15.7346 249.448 15.731 249.509 15.731C249.584 15.7244 249.659 15.7393 249.725 15.774C249.777 15.8118 249.789 15.8641 249.789 15.9335V16.2084L249.685 16.2073Z" fill="white"></path><path d="M249.953 15.5459H250.083V16.2065H249.953V15.5459Z" fill="white"></path><path d="M210.586 14.6137H210.604L212.094 10.8754H213.141L209.922 18.3706H208.929L210.125 15.7485L208.014 10.8754H209.061L210.586 14.6137ZM205.549 10.7055C206.261 10.7055 206.823 10.8995 207.235 11.2817C207.648 11.664 207.852 12.198 207.852 12.8715V16.0825H206.931V15.3598H206.889C206.488 15.9545 205.962 16.2523 205.298 16.2524C204.736 16.2524 204.257 16.0824 203.88 15.7426C203.509 15.4271 203.3 14.9598 203.312 14.4682C203.312 13.9281 203.514 13.5028 203.915 13.1811C204.316 12.8595 204.855 12.7017 205.524 12.7016C206.099 12.7016 206.566 12.8108 206.937 13.017V12.7924C206.936 12.4589 206.793 12.1436 206.542 11.9252C206.285 11.6946 205.955 11.5668 205.614 11.5668C205.076 11.5669 204.651 11.798 204.34 12.2592L203.491 11.7182C203.946 11.0449 204.634 10.7055 205.549 10.7055ZM200.984 8.47114C201.6 8.45907 202.199 8.69632 202.636 9.13325C203.509 9.95869 203.563 11.3486 202.743 12.2407L202.636 12.35C202.187 12.7809 201.636 12.9994 200.984 12.9995H199.393V16.0825H198.43V8.47114H200.984ZM205.675 13.4907C205.286 13.4907 204.957 13.5877 204.693 13.7758C204.436 13.9639 204.305 14.2007 204.305 14.4858C204.305 14.7406 204.424 14.9778 204.621 15.1235C204.836 15.2934 205.1 15.3844 205.369 15.3784C205.776 15.3784 206.165 15.2145 206.452 14.9233C206.769 14.6199 206.931 14.2617 206.931 13.8491C206.632 13.6064 206.213 13.4846 205.675 13.4907ZM199.393 12.0649H201.009C201.368 12.0769 201.715 11.9312 201.96 11.6704C202.463 11.1423 202.45 10.2925 201.93 9.78267C201.684 9.53999 201.356 9.40678 201.009 9.40669H199.393V12.0649Z" fill="white"></path><path d="M196.067 12.3314C196.067 12.034 196.043 11.7366 195.996 11.4453H191.934V13.1265H194.261C194.165 13.6667 193.854 14.1522 193.399 14.4557V15.5481H194.787C195.601 14.7895 196.067 13.6667 196.067 12.3314Z" fill="white"></path><path d="M191.933 16.6046C193.093 16.6046 194.074 16.2161 194.786 15.5485L193.398 14.4561C193.009 14.7231 192.513 14.8748 191.933 14.8748C190.808 14.8748 189.857 14.104 189.516 13.0723H188.086V14.2012C188.816 15.676 190.305 16.6046 191.933 16.6046Z" fill="white"></path><path d="M189.517 13.0723C189.338 12.5322 189.338 11.9435 189.517 11.3972V10.2744H188.087C187.471 11.5065 187.471 12.9631 188.087 14.1952L189.517 13.0723Z" fill="white"></path><path d="M191.933 9.59427C192.549 9.58213 193.141 9.81883 193.584 10.2497L194.816 8.99948C194.032 8.25902 193.003 7.85238 191.933 7.86452C190.305 7.86452 188.816 8.79919 188.086 10.274L189.516 11.4029C189.857 10.3651 190.808 9.59427 191.933 9.59427Z" fill="white"></path><path fill-rule="evenodd" clip-rule="evenodd" d="M157.071 15.5547H155.483C155.374 15.5547 155.282 15.6336 155.265 15.7409L154.623 19.8121C154.61 19.8925 154.672 19.9649 154.754 19.9649H155.512C155.62 19.9649 155.713 19.8859 155.73 19.7785L155.903 18.6804C155.92 18.5729 156.012 18.494 156.121 18.494H156.623C157.669 18.494 158.273 17.9879 158.43 16.985C158.501 16.5463 158.433 16.2015 158.228 15.96C158.002 15.695 157.602 15.5547 157.071 15.5547ZM157.254 17.0417C157.167 17.6114 156.732 17.6114 156.311 17.6114H156.071L156.239 16.5474C156.249 16.4831 156.305 16.4357 156.37 16.4357H156.48C156.766 16.4357 157.037 16.4357 157.177 16.5991C157.26 16.6967 157.286 16.8415 157.254 17.0417ZM161.816 17.0234H161.056C160.991 17.0234 160.935 17.0708 160.925 17.1351L160.892 17.3477L160.839 17.2707C160.674 17.0318 160.307 16.9519 159.941 16.9519C159.1 16.9519 158.383 17.5883 158.243 18.4809C158.171 18.9261 158.274 19.3519 158.526 19.6488C158.758 19.9218 159.09 20.0356 159.484 20.0356C160.161 20.0356 160.536 19.6003 160.536 19.6003L160.502 19.8116C160.49 19.8924 160.552 19.9648 160.633 19.9648H161.318C161.427 19.9648 161.519 19.8858 161.536 19.7784L161.947 17.1762C161.96 17.0961 161.898 17.0234 161.816 17.0234ZM160.757 18.5032C160.683 18.9375 160.339 19.2291 159.899 19.2291C159.678 19.2291 159.502 19.1583 159.388 19.0241C159.276 18.8909 159.233 18.7012 159.269 18.4899C159.338 18.0593 159.688 17.7582 160.121 17.7582C160.337 17.7582 160.512 17.8299 160.628 17.9652C160.744 18.102 160.79 18.2928 160.757 18.5032ZM165.102 17.0233H165.866C165.973 17.0233 166.035 17.1433 165.974 17.2311L163.433 20.899C163.392 20.9584 163.324 20.9938 163.252 20.9938H162.489C162.381 20.9938 162.319 20.8728 162.381 20.7848L163.172 19.6679L162.331 17.1983C162.301 17.1125 162.365 17.0233 162.456 17.0233H163.207C163.304 17.0233 163.39 17.0873 163.419 17.1807L163.865 18.6723L164.919 17.1201C164.96 17.0595 165.029 17.0233 165.102 17.0233Z" fill="white"></path><path fill-rule="evenodd" clip-rule="evenodd" d="M173.385 19.8123L174.037 15.6666C174.046 15.6023 174.102 15.5549 174.167 15.5547H174.901C174.982 15.5547 175.044 15.6273 175.031 15.7077L174.388 19.7787C174.372 19.8861 174.279 19.9651 174.17 19.9651H173.515C173.434 19.9651 173.372 19.8927 173.385 19.8123ZM168.395 15.5549H166.807C166.698 15.5549 166.606 15.6339 166.589 15.7411L165.947 19.8123C165.934 19.8927 165.996 19.9651 166.078 19.9651H166.892C166.968 19.9651 167.033 19.9099 167.045 19.8347L167.227 18.6806C167.244 18.5731 167.336 18.4942 167.445 18.4942H167.947C168.993 18.4942 169.596 17.9881 169.754 16.9853C169.825 16.5465 169.757 16.2018 169.552 15.9602C169.326 15.6952 168.926 15.5549 168.395 15.5549ZM168.578 17.0419C168.491 17.6116 168.056 17.6116 167.635 17.6116H167.396L167.564 16.5476C167.574 16.4833 167.629 16.436 167.694 16.436H167.804C168.091 16.436 168.361 16.436 168.501 16.5994C168.584 16.6969 168.61 16.8417 168.578 17.0419ZM173.14 17.0236H172.381C172.315 17.0236 172.26 17.071 172.25 17.1353L172.216 17.3479L172.163 17.2709C171.998 17.032 171.632 16.9522 171.265 16.9522C170.425 16.9522 169.708 17.5885 169.568 18.4811C169.496 18.9263 169.598 19.3521 169.851 19.649C170.083 19.922 170.414 20.0358 170.809 20.0358C171.486 20.0358 171.861 19.6005 171.861 19.6005L171.827 19.8118C171.814 19.8926 171.876 19.965 171.958 19.965H172.643C172.751 19.965 172.843 19.886 172.86 19.7786L173.271 17.1764C173.284 17.0963 173.222 17.0236 173.14 17.0236ZM172.081 18.5034C172.008 18.9377 171.662 19.2293 171.223 19.2293C171.002 19.2293 170.826 19.1585 170.712 19.0243C170.6 18.8911 170.558 18.7014 170.593 18.4902C170.662 18.0595 171.012 17.7584 171.445 17.7584C171.661 17.7584 171.836 17.8301 171.952 17.9655C172.068 18.1022 172.114 18.293 172.081 18.5034Z" fill="white"></path><path d="M162.945 14.098L163.14 12.8582L162.705 12.8481H160.629L162.072 3.69963C162.076 3.67201 162.091 3.64626 162.112 3.62797C162.133 3.60969 162.161 3.59961 162.189 3.59961H165.69C166.852 3.59961 167.654 3.84145 168.073 4.31878C168.269 4.54271 168.394 4.77671 168.454 5.03422C168.518 5.30444 168.519 5.62726 168.457 6.021L168.452 6.04974V6.30202L168.649 6.41324C168.814 6.50094 168.945 6.60133 169.046 6.71629C169.214 6.90774 169.323 7.15108 169.369 7.43956C169.416 7.73627 169.4 8.08932 169.323 8.48903C169.233 8.94883 169.088 9.34928 168.893 9.67696C168.713 9.97889 168.484 10.2293 168.212 10.4234C167.952 10.6077 167.643 10.7477 167.294 10.8373C166.956 10.9253 166.571 10.9698 166.148 10.9698H165.875C165.681 10.9698 165.491 11.0399 165.343 11.1657C165.194 11.2941 165.095 11.4695 165.065 11.6613L165.045 11.773L164.7 13.958L164.684 14.0383C164.68 14.0637 164.673 14.0764 164.663 14.085C164.653 14.0927 164.64 14.098 164.627 14.098H162.945Z" fill="white"></path><path d="M168.835 6.0791C168.825 6.1459 168.813 6.2142 168.799 6.28436C168.338 8.65462 166.758 9.47345 164.741 9.47345H163.714C163.467 9.47345 163.259 9.65258 163.221 9.89591L162.695 13.231L162.546 14.1763C162.521 14.336 162.644 14.4801 162.806 14.4801H164.627C164.843 14.4801 165.026 14.3233 165.06 14.1106L165.078 14.018L165.421 11.8414L165.443 11.7221C165.477 11.5086 165.66 11.3519 165.876 11.3519H166.148C167.913 11.3519 169.295 10.6353 169.699 8.56169C169.867 7.69547 169.78 6.97219 169.334 6.4635C169.199 6.31011 169.031 6.18285 168.835 6.0791Z" fill="#CECECE"></path><path d="M168.354 5.88641C168.283 5.86588 168.211 5.84721 168.136 5.83042C168.061 5.81401 167.984 5.79945 167.905 5.78676C167.628 5.74197 167.325 5.7207 167 5.7207H164.256C164.188 5.7207 164.124 5.736 164.067 5.76362C163.94 5.82445 163.846 5.94426 163.823 6.09092L163.239 9.78795L163.223 9.8958C163.261 9.65247 163.469 9.47332 163.716 9.47332H164.743C166.76 9.47332 168.339 8.65413 168.801 6.28425C168.815 6.21408 168.826 6.14579 168.837 6.07899C168.72 6.01703 168.594 5.96404 168.457 5.91887C168.424 5.90768 168.389 5.89686 168.354 5.88641Z" fill="white"></path><path d="M163.822 6.09112C163.845 5.94444 163.939 5.82464 164.066 5.76418C164.124 5.73656 164.187 5.72126 164.255 5.72126H166.999C167.324 5.72126 167.627 5.74253 167.904 5.78732C167.983 5.80001 168.06 5.81457 168.135 5.83098C168.21 5.84778 168.283 5.86645 168.353 5.88697C168.388 5.89742 168.423 5.90824 168.457 5.91907C168.593 5.96422 168.72 6.01759 168.836 6.07917C168.974 5.20325 168.835 4.60686 168.362 4.06682C167.84 3.4723 166.897 3.21777 165.691 3.21777H162.191C161.944 3.21777 161.734 3.39691 161.696 3.64062L160.238 12.8832C160.209 13.066 160.35 13.231 160.535 13.231H162.696L163.239 9.78813L163.822 6.09112Z" fill="white"></path><path d="M93.7451 5.10254C97.5913 5.10254 100.71 8.25663 100.71 12.1475C100.71 16.0384 97.5914 19.1934 93.7451 19.1934C92.0206 19.1933 90.4439 18.5572 89.2275 17.5068C88.0112 18.557 86.4344 19.1934 84.71 19.1934C80.8639 19.1931 77.7461 16.0383 77.7461 12.1475C77.7462 8.2568 80.864 5.1028 84.71 5.10254C86.434 5.10254 88.0113 5.73734 89.2275 6.78711C90.4438 5.73718 92.0209 5.10258 93.7451 5.10254Z" fill="#A9A9A9"></path><path d="M93.7441 5.10254C97.5903 5.10263 100.708 8.25669 100.708 12.1475C100.708 16.0384 97.5904 19.1933 93.7441 19.1934C92.0196 19.1934 90.4429 18.5571 89.2266 17.5068C90.7231 16.2146 91.6738 14.2939 91.6738 12.1475C91.6737 10.0008 90.7235 8.07927 89.2266 6.78711C90.4428 5.73725 92.02 5.10254 93.7441 5.10254Z" fill="#F4F4F4"></path><path d="M89.2275 6.78711C90.7246 8.07932 91.6748 10.0006 91.6748 12.1475C91.6748 14.2941 90.7244 16.2147 89.2275 17.5068C87.7311 16.2147 86.7813 14.2938 86.7812 12.1475C86.7812 10.0009 87.7309 8.07932 89.2275 6.78711Z" fill="white"></path><path fill-rule="evenodd" clip-rule="evenodd" d="M116.237 8.6748L112.895 16.0708H116.896L117.392 14.8916H118.525L119.021 16.0708H123.425V15.1708L123.818 16.0708H126.096L126.488 15.1518V16.0708H135.647L136.761 14.9222L137.804 16.0708L142.508 16.0804L139.155 12.3935L142.508 8.6748H137.877L136.793 9.80219L135.783 8.6748H125.819L124.963 10.5838L124.088 8.6748H120.095V9.54421L119.651 8.6748H116.237ZM129.914 9.72506H135.173L136.782 11.4627L138.443 9.72506H140.051L137.607 12.3924L140.051 15.0291H138.37L136.761 13.2712L135.092 15.0291H129.914V9.72506ZM131.213 11.7927V10.8239V10.823H134.495L135.927 12.3724L134.431 13.9302H131.213V12.8725H134.082V11.7927H131.213ZM117.011 9.72506H118.961L121.178 14.7404V9.72506H123.314L125.027 13.321L126.605 9.72506H128.73V15.0322H127.437L127.426 10.8736L125.541 15.0322H124.384L122.487 10.8736V15.0322H119.826L119.322 13.8424H116.596L116.093 15.0312H114.667L117.011 9.72506ZM117.062 12.7425L117.96 10.623L118.856 12.7425H117.062Z" fill="white"></path><path fill-rule="evenodd" clip-rule="evenodd" d="M47.9507 16.5929H45.7867L44.1639 10.402C44.0869 10.1173 43.9234 9.8655 43.6828 9.74685C43.0825 9.44865 42.4209 9.21134 41.6992 9.09165V8.8533H45.1853C45.6664 8.8533 46.0272 9.21134 46.0874 9.62716L46.9293 14.0928L49.0923 8.8533H51.1961L47.9507 16.5929ZM52.399 16.5929H50.3552L52.0381 8.8533H54.0818L52.399 16.5929ZM56.7259 10.9974C56.786 10.5806 57.1469 10.3422 57.5679 10.3422C58.2294 10.2824 58.9501 10.402 59.5515 10.6992L59.9123 9.03284C59.3109 8.79449 58.6494 8.6748 58.049 8.6748C56.0654 8.6748 54.622 9.74685 54.622 11.2347C54.622 12.3666 55.6444 12.9609 56.3661 13.319C57.1469 13.676 57.4476 13.9143 57.3875 14.2713C57.3875 14.8068 56.786 15.0452 56.1857 15.0452C55.464 15.0452 54.7423 14.8667 54.0818 14.5685L53.721 16.2359C54.4427 16.533 55.2235 16.6527 55.9451 16.6527C58.1693 16.7115 59.5515 15.6405 59.5515 14.033C59.5515 12.0086 56.7259 11.8899 56.7259 10.9974V10.9974ZM66.704 16.5929L65.0812 8.8533H63.3382C62.9774 8.8533 62.6165 9.09165 62.4962 9.44865L59.4913 16.5929H61.5952L62.0151 15.462H64.6001L64.8407 16.5929H66.704ZM63.6389 10.9376L64.2393 13.8545H62.5564L63.6389 10.9376Z" fill="white"></path><g clip-path="url(#clip0_2438_3785)"><path d="M5.10156 5.10352H5.38513V12.6329H5.10156V5.10352ZM5.66871 5.10352H5.95228V12.6329H5.66871V5.10352ZM7.37141 5.10352H7.65498V12.6329H7.37141V5.10352ZM12.8911 5.10352H13.1747V12.6329H12.8911V5.10352ZM14.7364 5.10352H15.02V12.6329H14.7364V5.10352ZM16.5258 5.10352H16.8094V12.6329H16.5258V5.10352ZM16.987 5.10352H17.2705V12.6329H16.9873L16.987 5.10352ZM17.4488 5.10352H17.7323V12.6329H17.4488V5.10352ZM17.9678 5.10352H18.2513V12.6329H17.9679L17.9678 5.10352ZM18.4867 5.10352H18.7702V12.6329H18.4867V5.10352ZM19.9293 5.10352H20.2128V12.6329H19.9289L19.9293 5.10352ZM23.5061 5.10352H23.7897V12.6329H23.5061V5.10352ZM27.2371 5.10352H27.5206V12.6329H27.237L27.2371 5.10352ZM28.2576 5.10352H28.5412V12.6329H28.2576V5.10352ZM28.9954 5.10352H29.279V12.6329H28.9954V5.10352ZM29.4494 5.10352H29.733V12.6329H29.4494V5.10352ZM9.24409 5.10352H9.52766V12.6329H9.24409V5.10352ZM6.40652 5.10352H6.91717V12.6329H6.40652V5.10352ZM9.77629 5.10352H10.2868V12.6329H9.77629V5.10352ZM12.1424 5.10352H12.653V12.6329H12.1424V5.10352ZM13.3538 5.10352H13.8644V12.6329H13.3538V5.10352ZM15.2576 5.10352H15.7681V12.6329H15.2576V5.10352ZM20.6851 5.10352H21.4793V12.6329H20.6851V5.10352ZM21.7224 5.10352H22.3462V12.6329H21.7218L21.7224 5.10352ZM22.817 5.10352H23.3276V12.6329H22.817V5.10352ZM24.2644 5.10352H25.1157V12.6329H24.2644V5.10352ZM25.9315 5.10352H26.7829V12.6329H25.9315V5.10352ZM7.93884 5.10352H8.95994V12.6329H7.93884V5.10352ZM10.5855 5.10352H11.3796V12.6329H10.5855V5.10352Z" fill="white"></path><path d="M5.46875 19.319V15.0093H7.08592C7.35616 14.9989 7.62571 15.0434 7.87829 15.14C8.07189 15.2228 8.2351 15.3635 8.34545 15.5428C8.45482 15.7125 8.51351 15.9098 8.51465 16.1117C8.51467 16.2958 8.46271 16.4761 8.36476 16.632C8.25442 16.8036 8.09733 16.9402 7.91198 17.0256C8.14984 17.0868 8.3612 17.224 8.51388 17.4164C8.65517 17.6042 8.72916 17.8341 8.72396 18.069C8.72564 18.2641 8.68193 18.4569 8.5963 18.6321C8.52391 18.7892 8.41517 18.9269 8.27904 19.0336C8.13736 19.1353 7.97693 19.2079 7.80704 19.2472C7.57923 19.2994 7.34591 19.3237 7.11223 19.3194L5.46875 19.319ZM6.03959 16.8204H6.97156C7.15357 16.8275 7.33573 16.8107 7.51337 16.7704C7.64339 16.7374 7.75867 16.662 7.84092 16.556C7.91749 16.4459 7.95617 16.3138 7.9511 16.1798C7.95373 16.0467 7.918 15.9156 7.8482 15.8023C7.78159 15.6947 7.67805 15.6151 7.55696 15.5783C7.34209 15.5289 7.12155 15.5086 6.90127 15.5181H6.03978L6.03959 16.8204ZM6.03959 18.8105H7.11242C7.2422 18.814 7.37204 18.8071 7.50075 18.7902C7.61716 18.7712 7.72891 18.7304 7.83005 18.6697C7.92246 18.61 7.99744 18.5269 8.04741 18.4289C8.10575 18.3176 8.13516 18.1934 8.13294 18.0677C8.13694 17.9177 8.09379 17.7703 8.00955 17.6462C7.92638 17.527 7.80579 17.4391 7.66695 17.3964C7.46164 17.3408 7.24915 17.3165 7.0366 17.3241H6.03959V18.8105ZM9.5574 17.2205C9.52123 16.6063 9.72813 16.0026 10.1334 15.5398C10.3244 15.3392 10.5557 15.1814 10.8122 15.0768C11.0686 14.9722 11.3443 14.9231 11.6211 14.9329C11.9991 14.9277 12.3713 15.0264 12.697 15.2183C13.0136 15.4054 13.2677 15.6822 13.4273 16.0136C13.5993 16.3745 13.6853 16.7704 13.6784 17.1702C13.6856 17.5766 13.5952 17.9788 13.4147 18.343C13.2508 18.6744 12.9892 18.9476 12.6651 19.1257C12.3448 19.3023 11.9845 19.3939 11.6187 19.3918C11.2359 19.3981 10.8591 19.2965 10.5314 19.0986C10.2161 18.9074 9.96351 18.6283 9.80476 18.2954C9.64106 17.9608 9.55643 17.593 9.5574 17.2205V17.2205ZM10.1456 17.2295C10.1211 17.6779 10.2723 18.1182 10.567 18.4571C10.7 18.6027 10.8627 18.718 11.044 18.7954C11.2254 18.8728 11.4212 18.9104 11.6183 18.9056C11.8166 18.9106 12.0136 18.8727 12.1959 18.7944C12.3782 18.7162 12.5414 18.5994 12.6743 18.4522C12.9717 18.0927 13.1205 17.6331 13.0904 17.1675C13.0982 16.8522 13.0385 16.5389 12.9151 16.2487C12.8064 15.9984 12.6252 15.7864 12.395 15.64C12.1648 15.4954 11.8978 15.4204 11.6261 15.4239C11.4335 15.421 11.2423 15.4562 11.0634 15.5276C10.8845 15.599 10.7216 15.7051 10.5839 15.8399C10.4211 16.0299 10.2983 16.2509 10.223 16.4896C10.1477 16.7283 10.1214 16.9797 10.1456 17.2288V17.2295ZM14.6136 19.3192V15.0093H15.1837V18.8102H17.306V19.319L14.6136 19.3192ZM18.2199 19.3192V15.0093H21.3362V15.5181H18.7901V16.8383H21.1743V17.344H18.7901V18.8106H21.4362V19.3194L18.2199 19.3192ZM23.5434 19.3192V15.5181H22.1228V15.0093H25.5389V15.5181H24.1132V19.319L23.5434 19.3192ZM26.0648 17.2205C26.0291 16.6062 26.2365 16.0026 26.6422 15.5401C26.8332 15.3395 27.0645 15.1817 27.321 15.0771C27.5774 14.9725 27.8531 14.9234 28.1299 14.9331C28.5079 14.928 28.88 15.0267 29.2057 15.2186C29.5224 15.4057 29.7765 15.6824 29.9361 16.0138C30.1082 16.3747 30.1941 16.7707 30.1871 17.1705C30.1942 17.5769 30.1036 17.9791 29.9229 18.3433C29.7585 18.6753 29.4959 18.9487 29.1709 19.1265C28.8505 19.3031 28.4903 19.3948 28.1245 19.3926C27.7414 19.3989 27.3644 19.2971 27.0366 19.0989C26.7219 18.9075 26.4699 18.6283 26.3117 18.2957C26.1481 17.9609 26.0636 17.5931 26.0648 17.2205V17.2205ZM26.653 17.2295C26.6285 17.6779 26.7797 18.1182 27.0744 18.4571C27.2074 18.6027 27.3701 18.718 27.5514 18.7954C27.7328 18.8728 27.9286 18.9104 28.1257 18.9056C28.3246 18.9112 28.5223 18.8737 28.7052 18.7955C28.8882 18.7173 29.052 18.6004 29.1854 18.4528C29.4827 18.0932 29.6315 17.6337 29.6013 17.168C29.6075 16.8524 29.5459 16.5391 29.4207 16.2493C29.3119 15.999 29.1308 15.787 28.9005 15.6406C28.6705 15.4961 28.4037 15.421 28.1321 15.4245C27.9395 15.4215 27.7483 15.4568 27.5694 15.5282C27.3905 15.5996 27.2275 15.7057 27.0899 15.8405C26.9274 16.0305 26.8049 16.2515 26.7299 16.49C26.6548 16.7286 26.6286 16.9798 26.653 17.2287V17.2295Z" fill="white"></path></g><defs><clipPath id="clip0_2438_3785"><rect width="25.086" height="14.2884" fill="white" transform="translate(5.10156 5.10352)"></rect></clipPath></defs></svg>